<svg id="logo-mobile" xmlns="http://www.w3.org/2000/svg" width="102" height="84" viewBox="0 0 102 84"><defs><style>.cls-1{fill:#23a9e1;}.cls-2{fill:#491213;}
    .cls-3{fill:#fff;}.cls-4{fill:#dc6243;}.cls-5{fill:#f49774;}.cls-6{fill:#f4b1a4;}</style></defs><title>logo-mobile</title><path class="cls-1" d="M0,0,50.58,59.05,101.67,0Z"/><path class="cls-2" d="M50.92,0H0V22.46L50.58,84l.34-.42,50.75-60.39V0Zm0,57.05-.34.41L3.71,1.78H98.13Z"/><path class="cls-2" d="M50.58,57.46l.34-.41L78.49,24.76c-6.91.95-11.86,6.08-18.6,5-3.4-.56-3.5-2.52-4.47-4.46-.74-1.49-1.94-1.3-3.48-1.91s-2.28-1.74-5.17-1.06c-2.52.59-2.81,4.52-6,4.29-1.69-.12-1.81-2.49-4.24-5.53-6.3-7.58-12.16-6.53-16.25.47Z"/><path class="cls-3" d="M23.28,32.25a2.79,2.79,0,0,1,.8,2.11c-.06.58-.93,1.55-.27,1.85l2.25-2.83c-.61-.15-5.37-5.85-5.45-6.48l-3.15,1.74c.16.66,1.29,0,1.85,0a2.89,2.89,0,0,1,2,1.16c-1.73,1.44-5.93,5-6.37,5.09-.23,0-1.09-.61-1.1-.06,0,.26.85,1,1,1.21L17,38.73c.62-.28-.11-.73.2-1.24S22.14,33.22,23.28,32.25Zm-5.27-7c.44-.1.62.43.95-.06L16.52,22.3c-.37-.45-.84-.92-.71,0,.09.63-6.11,5.67-6.49,5.82s-.76-.41-1.11.1l2.19,2.61c.25.29.48.61.75.88s.21-.67.22-.59c-.09-.51.53-.94.86-1.22A58.94,58.94,0,0,1,18,25.27Zm-8.78-.92a3.2,3.2,0,0,1-4.2-2c-.55-1.84.61-3.76,2.07-4.8s3.59-1,4.37.84a3.59,3.59,0,0,1-.09,2.5c-.16.5-.6,1,0,1.29L14,18.85c-1-.63-1.51-1.68-2.3-2.59A5.89,5.89,0,0,0,8.23,14c-2.87-.4-5.57,2.56-5.79,5.25a5.75,5.75,0,0,0,1.24,4c.75,1,1.87,1.62,2.44,2.75A22.05,22.05,0,0,0,9.4,24.72a1.53,1.53,0,0,0-.16-.37C8.47,24.58,9.24,24.35,9.23,24.35ZM48.54,60.76c-1.15-.77-4-4.69-4.58-5.34L43.63,55s-.28.22-.24.18c-.18.15.13.58-.06.87-.79,1.24-5.75,5-6,5.16-.56.39-1.17-.16-1.49.32a46,46,0,0,0,3,3.58c.48.08.15-.82.21-1a30.37,30.37,0,0,1,3.55-3.21c.34-.28.69.42.89.72a1.77,1.77,0,0,1,.3,1.57c-.12.37-.72.92-.25,1.17l2.61-3c.25-.29-.57,0-.47-.08a.92.92,0,0,1-1.06,0c-.1-.07-1.09-1.08-1-1.17A4.66,4.66,0,0,1,45.16,59c.86-.21,1.58,1.52,1.7,2.13a3.46,3.46,0,0,1-.07,1.75c-.12.39-.49.7,0,.93l2.13-2.92a.7.7,0,0,1-.4-.09ZM38.31,56.63a5.48,5.48,0,1,0-7.79-1.07,5.42,5.42,0,0,0,7.79,1.07C39.47,55.65,38.21,56.7,38.31,56.63Zm-.46-4.75a7.41,7.41,0,0,1-3.74,3.66c-1.81.72-3.1-.82-2.35-2.55a7.45,7.45,0,0,1,3.73-3.67c1.85-.73,3.07.85,2.36,2.56C37.47,52.76,37.92,51.71,37.85,51.88Zm-6-9.86c.47.06.92.55,1.27,0l-2.23-2.63c-.6.26.05.55-.2,1s-2.56.78-3.17.89a15.67,15.67,0,0,1,1.15-2.84c.55-.44.89.44,1.29-.14l-2.75-3.25c-.31-.37-.56-1-1-.68a8.47,8.47,0,0,1-.08,1.73c-.09.24-.94,3.64-1.93,4.47a20.88,20.88,0,0,1-2.7,2.1c-.54.19-.83-.6-1.22,0l2.49,3c.12.15.6.86.77.89.52.1.06-.89.11-1.08.15-.43,2.5-2.72,3.49-2.86A19.18,19.18,0,0,1,31.87,42ZM69.21,52.45a4.89,4.89,0,0,1,.21,2c-.11.87-1,2.92-2.17,2.34a18.6,18.6,0,0,1-3.19-2.55c.8-.94,1.51-1.75,2.85-1.3.37.12.69,0,.3-.26s-3.11-2-3.26-1.8.53.87.22,1.47a6.9,6.9,0,0,1-.93,1.22c-.72-.6-1.92-1.25-1.06-2.25A3.69,3.69,0,0,1,64.28,50c.56-.11,1.84.39,2-.22L63,48.2c.18.79-3.35,4.52-4.13,5.46-.11.14-.66.61-.67.8,0,.42.62.09.66.08.49-.18,6.82,5.11,7,5.47s-.22.58,0,.73c0,0,.23.22.26.19.39-.47,4.52-6,5.37-6.22-.79-1.21-1.59-2.43-2.37-3.65C68.5,51.32,69.07,52,69.21,52.45ZM63,59.15c-2.07-1.34-5.59,1.28-6.12,1.53-1,.49-1.79-.54-1.25-1.5A2.78,2.78,0,0,1,58,57.89c.27,0,1.35.2,1.46,0s.23-.23,0-.35l-2.57-1.73c-.17,1-1.38,1.73-2.07,2.44a4.7,4.7,0,0,0-1.52,3.15A3,3,0,0,0,55,64.09a3.32,3.32,0,0,0,3.33-.51,19.66,19.66,0,0,1,1.92-1.17c1-.47,2.31-.06,1.95,1.27A3.6,3.6,0,0,1,59.79,66a3.31,3.31,0,0,1-1.87-.09c-.43-.14-1-.73-1.23-.11l3.48,2.54a2.33,2.33,0,0,1,1.09-1.57,11.77,11.77,0,0,0,2-2.12c1.16-1.7,1.54-4.07-.21-5.52Zm0,0C64,59.75,62.45,58.66,63,59.15ZM92.28,21.84Z"/><path class="cls-3" d="M99.73,19.63c-.72.73-8.42-2.34-9-2.77-.29-.11-.3-1.32-.7-.83s-.81,1-1.22,1.46S88,18.5,87.58,19c-.26.31-.54.46,0,.72.84-.42,5.42,7.34,5,8.46-.73.37-6.92-5.06-7.08-5.42-.06-.14.27-1-.21-.94-.23,0-.75.89-.89,1.07L83.48,24c.33.49.51,0,1,0a13.34,13.34,0,0,1,2.23,1.67c-.72,0-2.68.13-2.93.11-.9.11-.42-.66-1-.93l-2.27,2.76-1.33,1.61c-.05.07,0,0,0,.11.33.27.11.17.57,0s6.56,4.93,6.78,5.19c.37.45-.16,1,.41,1.22l1.79-2.19c.1-.1.15-.1,0-.19-.43-.36-.48.21-1,.15s-4.39-3.37-5.89-4.61l8.19-.3c.31,0,1.15.89,1.07,1.21s-.46.56.06.8c.48-.58,1-1.15,1.45-1.74l.23-.28a.75.75,0,0,0,.21-.26l.17-.21c.42-.49,1.8-2,1.63-2.15-.46-.4-.68.46-1.29-.06a12.94,12.94,0,0,1-1.45-2.16c-.26-.45.61-.9,1-1.12.77-.48,3.25-1.18,3.48.35,0,.26-.27.55-.09.7s.21.24.28.17,2.36-2.85,3.3-4A1.19,1.19,0,0,0,99.73,19.63Zm-7.37,2.15h0l-.08.06.08-.05a5.44,5.44,0,0,0-1,.76l-1.56-2.69,3.52,1.48A3.72,3.72,0,0,0,92.36,21.78ZM82.62,33a5.48,5.48,0,1,0,.59,7.6A5.38,5.38,0,0,0,82.62,33Zm-.28,6.61,0,0c-1.23,1.3-3.36.1-4.51-.73S74.7,36.34,76,34.8c1.06-1.29,3.12-.23,4.19.48s3.41,2.6,2.28,4.22C82.49,39.41,82.54,39.35,82.34,39.61Z"/><path class="cls-3" d="M82.62,33C83.79,34,82.36,32.78,82.62,33Zm-.31,6.64,0,0a.76.76,0,0,0,.08-.11ZM76,42.12c.11.09.28.22-.06-.06-2.83-2.12-6.19-1.5-8.4,1.16l-3,3.56c.35.52.76-.11,1.27.18s6.24,5.1,6.34,5.36c.16.46-.25.55.14.88A40.89,40.89,0,0,0,77.29,47,4.33,4.33,0,0,0,76,42.12Zm-1.31,6.75c-.24.3,0,.06-.67.65-.31.3-6.44-4.67-6.19-4.94a4.34,4.34,0,0,1,3.58-1.3C73.61,43.84,76.64,46.54,74.71,48.87Z"/><path class="cls-2" d="M50.58,57.48l.34-.41L78.49,24.78c-6.91.95-11.86,6.08-18.6,5-3.39-.57-3.5-2.52-4.47-4.46-.75-1.49-1.94-1.3-3.48-1.91s-2.28-1.74-5.17-1.06c-2.53.59-2.8,4.52-6,4.29-1.69-.12-1.81-2.49-4.24-5.54-6.31-7.57-12.16-6.52-16.25.48Z"/><path class="cls-1" d="M46.56,70.92l4-6.5,4,6.5-4,6.51Z"/><path class="cls-3" d="M23.28,32.26a2.81,2.81,0,0,1,.8,2.12c0,.58-.93,1.55-.27,1.85l2.25-2.84c-.61-.15-5.37-5.84-5.45-6.47l-3.15,1.74c.16.66,1.29,0,1.85,0a2.92,2.92,0,0,1,2,1.15c-1.73,1.45-5.93,5-6.37,5.09-.23,0-1.09-.6-1.1,0,0,.26.85,1,1,1.21L17,38.75c.62-.28-.11-.73.21-1.24S22.14,33.24,23.28,32.26Zm-5.27-7c.44-.09.62.44.95-.05l-2.44-2.92c-.37-.44-.84-.91-.71,0C15.9,23,9.7,28,9.32,28.15s-.76-.42-1.11.1l2.19,2.6c.25.3.48.62.75.89s.21-.68.22-.59c-.09-.51.53-.95.86-1.23A60.51,60.51,0,0,1,18,25.28Zm-8.78-.91a3.22,3.22,0,0,1-4.2-2c-.55-1.84.61-3.76,2.07-4.81s3.59-1,4.37.84a3.59,3.59,0,0,1-.09,2.5c-.16.51-.6,1,0,1.29L14,18.87c-1-.63-1.51-1.69-2.3-2.6A5.83,5.83,0,0,0,8.23,14c-2.87-.41-5.57,2.56-5.79,5.24a5.77,5.77,0,0,0,1.24,4c.75,1,1.87,1.62,2.44,2.75A22.23,22.23,0,0,0,9.4,24.73a1.46,1.46,0,0,0-.16-.36C8.47,24.59,9.24,24.37,9.23,24.37Zm39.3,36.41c-1.15-.77-4-4.69-4.57-5.34l-.33-.4s-.28.23-.24.19c-.18.15.13.58-.06.87-.79,1.24-5.75,5-6,5.16-.56.39-1.17-.16-1.49.32a46,46,0,0,0,3,3.58c.48.08.15-.82.21-1A30.37,30.37,0,0,1,42.61,61c.34-.28.69.42.89.72a1.77,1.77,0,0,1,.3,1.57c-.12.37-.72.92-.25,1.17l2.61-3c.25-.29-.57,0-.47-.08a.92.92,0,0,1-1.06,0c-.1-.07-1.09-1.08-1-1.17A4.73,4.73,0,0,1,45.15,59c.87-.21,1.59,1.52,1.71,2.13a3.46,3.46,0,0,1-.07,1.75c-.13.39-.49.7,0,.93l2.13-2.92a.75.75,0,0,1-.41-.09c-.12-.09.14.07,0,0ZM38.31,56.65a5.48,5.48,0,1,0-7.79-1.07,5.42,5.42,0,0,0,7.79,1.07C39.47,55.67,38.21,56.72,38.31,56.65Zm-.46-4.76a7.43,7.43,0,0,1-3.74,3.67c-1.81.72-3.1-.83-2.36-2.55a7.47,7.47,0,0,1,3.74-3.67c1.85-.73,3.07.85,2.36,2.55C37.47,52.78,37.92,51.72,37.85,51.89Zm-6-9.85c.47.06.92.55,1.27,0l-2.23-2.64c-.6.27,0,.55-.2,1s-2.56.78-3.17.89a15.84,15.84,0,0,1,1.15-2.83c.55-.45.89.43,1.29-.14l-2.75-3.26c-.31-.36-.56-1-1-.68a8.56,8.56,0,0,1-.08,1.74c-.09.23-.94,3.64-1.93,4.47a21.67,21.67,0,0,1-2.7,2.09c-.54.19-.83-.59-1.22,0l2.49,3c.12.15.6.87.77.9.52.09.06-.9.11-1.09.15-.43,2.5-2.72,3.5-2.86A19.53,19.53,0,0,1,31.87,42Z"/><path class="cls-4" d="M25.61,22.87c-4.05-.16-2.35-3.95.39-4.8s8.09,1.71,9.84,3.39c-2.78.86-6.38.74-9.44.88C26.17,19.22,25.44,20.31,25.61,22.87Z"/><path class="cls-4" d="M26.62,27.72c-2-1.57-1.39-5.26,1.76-4.14,4,2.08-.85,3.24-1.76,4.14Z"/><path class="cls-4" d="M35.11,35.42c-8.62-.07-2.79-13.32.14-12.52C38.62,24,38.25,35.52,35.11,35.42Z"/><path class="cls-4" d="M41.22,31.09c-.84,2.51-2.36,3-2.2-.07.2-3.5,2.48-2.66,4.93-4,2-1.12,3.14-5.21,6.65-2.76,1.56,1.09,3.35.17,3.85,1.83,0-.09-4.55,10.31-2,10.31-5,0-2.78-5.93-.88-9.9-1.84.88-4.84,6.69-2.38,7.64-1.28,1.69-5.19,3.94-7.23,2.3C40.37,35.19,41.23,33.11,41.22,31.09Z"/><path class="cls-4" d="M45.32,40.7c-3.49,1-8.12-1.21-2.51-2.34,3.48-.71,7.19.77,2.51,2.34Z"/><path class="cls-4" d="M49.69,40.56c-.74-1.66.56-3.64,2.68-2.2C54.22,39.61,51.52,41.46,49.69,40.56Z"/><path class="cls-4" d="M46.74,45.22c-2.41-.74-10.53-.56-5.21-2.76C43.17,41.78,51.68,42.56,46.74,45.22Z"/><path class="cls-4" d="M50,44.87c0-1-.51-2.68,1.35-1.95,2.24.88-1.35,2.66-1.35,1.95Z"/><path class="cls-4" d="M57.18,48.54c-1.44-1.23-2.89-1.3-4.23,0-1.8-3.3-8.32-2.19-11.37-2.65C43.22,49.92,56.45,50.67,57.18,48.54Z"/><path class="cls-4" d="M55.27,51c-3.15-.14-6.67-.56-9.64.09,1.86.46,6.39,1.79,2.17,2.91,1.52,2.17,4,2,5.58.13A15,15,0,0,1,51.83,53C53.5,52.73,55.07,51.77,55.27,51Z"/><path class="cls-4" d="M58.87,47.08c-5.29-3.11-3.95-5.42.35-7.58,2.26-1.13,7.33-5.21,9.45-3.85Z"/><path class="cls-5" d="M55.11,39.81c-4.48-4.6,6.68-4.18,8.48-5.8,1.31.44,10.77-8.28,13.07-7.74-1.65,1.94-5.22,8.14-7.77,8.14-2,0-4-.29-5.47,1.1C61.19,37.56,57.51,38.6,55.11,39.81Z"/><path class="cls-6" d="M56.57,34.18c-2.45,1.32-4.77-3.9-.53-3.4,2.81.34,5.66-.23,8.34.23A8.65,8.65,0,0,1,56.57,34.18Z"/><path class="cls-3" d="M69.2,52.47a4.84,4.84,0,0,1,.22,2c-.11.88-1,2.93-2.17,2.34a17.68,17.68,0,0,1-3.19-2.55c.8-.93,1.51-1.75,2.85-1.29.37.12.69,0,.3-.26s-3.11-2-3.26-1.8.53.86.22,1.47a7.29,7.29,0,0,1-.93,1.22c-.72-.61-1.92-1.25-1.06-2.26A3.68,3.68,0,0,1,64.28,50c.57-.11,1.84.39,2-.22L63,48.21c.18.8-3.35,4.53-4.13,5.46-.12.14-.66.61-.67.8,0,.43.63.1.66.09.49-.18,6.82,5.1,7,5.47s-.22.57,0,.73c0,0,.23.22.26.18.39-.46,4.52-6,5.37-6.21l-2.37-3.65C68.5,51.33,69.07,52,69.2,52.47ZM63,59.17c-2.07-1.34-5.59,1.28-6.12,1.53-1,.49-1.79-.54-1.25-1.5A2.76,2.76,0,0,1,58,57.91c.27,0,1.35.2,1.46,0s.23-.22,0-.34l-2.57-1.74c-.17,1.06-1.38,1.73-2.07,2.44a4.7,4.7,0,0,0-1.52,3.16A3,3,0,0,0,55,64.11a3.32,3.32,0,0,0,3.33-.51,17.88,17.88,0,0,1,1.92-1.17c1-.47,2.31-.06,2,1.27A3.64,3.64,0,0,1,59.79,66,3.31,3.31,0,0,1,57.92,66c-.43-.14-1-.74-1.23-.11l3.48,2.53a2.29,2.29,0,0,1,1.09-1.56,11.83,11.83,0,0,0,2-2.13c1.16-1.69,1.54-4.06-.21-5.51Z"/><path class="cls-3" d="M63,59.17C64,59.77,62.45,58.67,63,59.17ZM92.28,21.85Z"/><path class="cls-3" d="M99.73,19.65c-.72.72-8.42-2.35-9-2.77-.29-.11-.3-1.32-.7-.83s-.81,1-1.22,1.46L87.58,19c-.26.32-.54.46,0,.72.84-.42,5.42,7.35,5,8.46-.73.38-6.92-5.05-7.08-5.41-.06-.15.27-1-.22-.94-.22,0-.74.89-.88,1.07L83.48,24c.33.48.51,0,1,0a12.81,12.81,0,0,1,2.23,1.67c-.72,0-2.68.13-2.93.11-.9.11-.42-.66-1-.93-.76.92-1.53,1.84-2.28,2.76l-1.33,1.61c-.05.06,0,0,0,.11.33.27.11.17.57,0s6.56,4.93,6.78,5.19c.37.45-.16,1,.41,1.22l1.8-2.19c.09-.11.14-.1,0-.19-.43-.36-.48.21-1,.15s-4.4-3.37-5.9-4.61l8.2-.31c.3,0,1.14.9,1.07,1.22s-.47.56,0,.79c.48-.57,1-1.14,1.46-1.73l.22-.28a.62.62,0,0,0,.21-.27l.17-.21c.43-.48,1.8-2,1.64-2.15-.46-.4-.69.47-1.3-.05a12.89,12.89,0,0,1-1.44-2.16c-.27-.45.6-.9,1-1.12.78-.48,3.25-1.19,3.48.35,0,.25-.27.55-.08.7s.2.24.27.16l3.3-4C100,19.83,99.85,19.69,99.73,19.65ZM92.36,21.8h0l-.08.06.08-.06a5.94,5.94,0,0,0-1,.76l-1.56-2.69,3.52,1.48a3.75,3.75,0,0,0-1,.45ZM82.62,33a5.49,5.49,0,1,0,.59,7.6A5.39,5.39,0,0,0,82.62,33Zm-.28,6.62,0,0c-1.23,1.29-3.36.1-4.51-.73s-3.11-2.57-1.85-4.1c1.06-1.29,3.12-.23,4.19.48s3.41,2.6,2.28,4.22C82.49,39.43,82.54,39.37,82.34,39.63Z"/><path class="cls-3" d="M82.62,33C83.79,34,82.36,32.8,82.62,33Zm-.31,6.64,0,0,.08-.11A.7.7,0,0,0,82.31,39.65ZM76,42.14c.11.09.28.22-.06-.06-2.83-2.13-6.19-1.5-8.4,1.16-1,1.19-2,2.37-3,3.56.35.52.76-.11,1.27.18s6.25,5.1,6.34,5.37c.16.45-.26.54.14.87A40.89,40.89,0,0,0,77.29,47,4.33,4.33,0,0,0,76,42.14Zm-1.31,6.75c-.24.3,0,0-.67.65-.31.29-6.44-4.67-6.19-4.94a4.34,4.34,0,0,1,3.58-1.3C73.62,43.86,76.64,46.56,74.71,48.89Z"/></svg>