<svg id="Layer_1" data-name="Layer 1" xmlns="http://www.w3.org/2000/svg" width="459.75" height="79.8" viewBox="0 0 459.75 79.8"><defs><style>.cls-1{fill:#fff;}</style></defs><title>welcome-sm</title><path class="cls-1" d="M44.47,21.74a20.48,20.48,0,0,0-12.91-5c-3.57,0-8.33,2.09-8.33,6.26,0,4.37,5.26,6,8.63,7.14l5,1.49C47.25,34.74,55.29,40,55.29,52.11c0,7.45-1.79,15.09-7.75,20.15s-13.69,7-21.23,7A46.19,46.19,0,0,1,0,70.77L8.34,55.09C13.2,59.36,19,62.83,25.61,62.83c4.56,0,9.43-2.28,9.43-7.54,0-5.46-7.64-7.35-11.81-8.54C11,43.27,3,40.1,3,25.61,3,10.42,13.8.5,28.79.5A51.2,51.2,0,0,1,52.21,6.65Z"/><path class="cls-1" d="M91.83,19v12.5h21.94V47.94H91.83v12.9H115V77.32H72.38V2.48H115V19Z"/><path class="cls-1" d="M129.42,2.48H157c20.85,0,38,16.38,38,37.42s-17.27,37.42-38,37.42H129.42Zm19.45,58.37h4.37c11.61,0,21.54-6.36,21.54-21,0-13.4-8.84-20.94-21.34-20.94h-4.57Z"/><path class="cls-1" d="M286.87,38.51c0,24.22-17.37,41.29-41.39,41.29s-41.39-17.07-41.39-41.29C204.09,15.88,223.94,0,245.48,0S286.87,15.88,286.87,38.51Zm-62.53.1c0,12.91,9.53,22.33,21.14,22.33s21.14-9.43,21.14-22.33c0-10.32-9.52-19.75-21.14-19.75S224.34,28.29,224.34,38.61Z"/><path class="cls-1" d="M297.24,2.48h19.45l35.64,45.76h.19V2.48H372V77.32H352.52L316.89,31.46h-.2V77.32H297.24Z"/><path class="cls-1" d="M407.34,64.32l-5.16,13H381.54L410.32,2.48h21.25l28.18,74.84H439l-4.86-13ZM421,25.61h-.2l-8,23.82h16.17Z"/></svg>